<svg xmlns="http://www.w3.org/2000/svg" height="24" viewBox="0 0 24 24" width="24"><path d="M0 0h24v24H0z" fill="none"/><path d="M9.19 6.35c-2.04 2.29-3.44 5.58-3.57 5.89L2 10.69l4.05 4.05c.47-1.62 2.68-7.48 3.14-8.39zM11.17 17s3.74-1.55 5.89-3.7c5.4-5.4 4.5-9.62 4.21-10.57-.95-.3-5.17-1.19-10.57 4.21C8.55 9.09 7 12.83 7 12.83l4.17 4.17zM17.65 14.81c-.91.46-6.77 2.67-8.39 3.14L13.31 22l-1.55-3.62c.31-.13 3.6-1.53 5.89-3.57z" fill="currentColor"/><path d="M9 18c0 .83-.34 1.58-.88 2.12C6.94 21.3 2 22 2 22s.7-4.94 1.88-6.12C4.42 15.34 5.17 15 6 15c1.66 0 3 1.34 3 3zm4-9c0-1.1.9-2 2-2s2 .9 2 2-.9 2-2 2-2-.9-2-2z" fill="currentColor"/></svg>

